<mxfile host="app.diagrams.net" modified="2023-05-23T02:21:49.984Z" agent="Mozilla/5.0 (Windows NT 10.0; Win64; x64) AppleWebKit/537.36 (KHTML, like Gecko) Chrome/113.0.0.0 Safari/537.36" version="21.3.2" etag="WQFWu082SeRpWHkP4P5q" type="github">
  <diagram name="Page-1" id="W-UT8moUEw-2cbCMGIBl">
    <mxGraphModel>
      <root>
        <mxCell id="0" />
        <mxCell id="1" parent="0" />
      </root>
    </mxGraphModel>
  </diagram>
</mxfile>
